PathFileType	4	(x/y/z)	A01_FAST_T0021.trc
DataRate	CameraRate	NumFrames	NumMarkers	Units	OrigDataRate	OrigDataStartFrame	OrigNumFrames
240	240	4	48	mm	240	216	287
Frame#	Time	TOP_HEAD			R_AC			L_AC			R_ASIS			L_ASIS			R_PSIS			L_PSIS			SACRAL			L_IC			R_IC			L_GT			R_GT			R_LAT_KNEE			R_MED_KNEE			L_MED_KNEE			L_LAT_KNEE			R_TOE			L_TOE			R_1ST_MET			L_1ST_MET			L_5TH_MET			R_5TH_MET			R_LAT_ANK			R_MED_ANK			L_MED_ANK			L_LAT_ANK			L_HEEL_SUP			R_HEEL_SUP			L_HEEL_LAT			R_HEEL_LAT			L_HEEL_MED			R_HEEL_MED			R_LL_PROX_POST			R_LL_PROX_ANT			R_LL_DIST_ANT			R_LL_DIST_POST			R_THIGH_PROX_POST			R_THIGH_PROX_ANT			R_THIGH_DIST_ANT			R_THIGH_DIST_POST			L_PROS_PROX_ANT			L_PROS_PROX_POST			L_PROS_DIST_POST			L_PROS_DIST_ANT			L_THIGH_PROX_ANT			L_THIGH_PROX_POST			L_THIGH_DIST_POST			L_THIGH_DIST_ANT			
		X1	Y1	Z1	X2	Y2	Z2	X3	Y3	Z3	X4	Y4	Z4	X5	Y5	Z5	X6	Y6	Z6	X7	Y7	Z7	X8	Y8	Z8	X9	Y9	Z9	X10	Y10	Z10	X11	Y11	Z11	X12	Y12	Z12	X13	Y13	Z13	X14	Y14	Z14	X15	Y15	Z15	X16	Y16	Z16	X17	Y17	Z17	X18	Y18	Z18	X19	Y19	Z19	X20	Y20	Z20	X21	Y21	Z21	X22	Y22	Z22	X23	Y23	Z23	X24	Y24	Z24	X25	Y25	Z25	X26	Y26	Z26	X27	Y27	Z27	X28	Y28	Z28	X29	Y29	Z29	X30	Y30	Z30	X31	Y31	Z31	X32	Y32	Z32	X33	Y33	Z33	X34	Y34	Z34	X35	Y35	Z35	X36	Y36	Z36	X37	Y37	Z37	X38	Y38	Z38	X39	Y39	Z39	X40	Y40	Z40	X41	Y41	Z41	X42	Y42	Z42	X43	Y43	Z43	X44	Y44	Z44	X45	Y45	Z45	X46	Y46	Z46	X47	Y47	Z47	X48	Y48	Z48	

216	0.89897	728.5	1804.5	336.58	536.38	1575.1	559.47	497.18	1572.4	99.444	521.26	1110.1	540.33	512.74	1050.2	189.98	300.17	1118.3	420.77	307.89	1110.6	289.51	288.16	1084.6	354	481.98	1171.3	146.06	496.2	1215.6	547.58	458.15	971.23	148.29	455.83	999.9	580.43	451.94	586.45	501.31	487.04	590.24	372.78	622.5	574.99	337.98	595.73	610.01	184.85	607.42	65.44	387.18	471.04	84.869	190.78	523.68	56.378	340.59	395.56	101.61	255.12	355.37	127.91	134.27	492.33	45.698	474.7	388.53	124.81	450.21	396.35	134.85	348.42	339.06	242.94	261.1	304.53	258.6	198.44	211.75	262.39	249.58	285.93	106.97	391.38	198.44	238.78	215.82	289.48	80.978	424.61	211.2	224.23	277.02	292.16	80.192	362.07	346.63	417.72	492.15	415.24	402.3	511.89	413.22	329.23	490.43	357.26	336.17	478.74	414.82	852.99	554.39	484.18	872.5	565.05	488.3	781.28	551.74	422.68	764.68	539.02	589.22	515.74	187.22	542.93	545.77	183.5	503.77	495.85	190.45	552.92	472.62	192.98	572.16	852.1	179.84	504.46	837.83	158.16	536.49	768.6	166.79	598.51	782.78	185.15
217	0.90315	735.02	1805.3	335.91	542.5	1576.4	559.28	503.29	1573.4	99.283	526.87	1110.8	540.58	519.3	1051.6	190.15	306.24	1119.4	420.13	314.29	1111.6	288.96	294.38	1085.8	353.33	488.56	1172.5	145.94	501.98	1217.1	547.61	465.19	972.56	148.18	460.96	1000.7	580.22	453.33	587.42	500.92	488.47	590.97	372.35	630.83	577.74	338.75	604.37	611.65	185.29	607.57	65.378	387.17	492.19	83.755	191.72	523.95	56.364	340.59	415.82	98.885	255.38	375.99	123.82	134.1	492.58	45.812	474.63	389.11	125.81	450.07	397.13	135.66	348.27	355.89	238.8	260.48	321.5	253.48	197.53	228.25	255.17	247.79	286.62	108.46	391.25	215.82	231.12	214.04	289.95	82.48	424.53	228.42	217.07	275.36	292.56	81.691	362.05	347.55	418.91	491.71	416.11	403.38	511.49	414	330.31	490.05	358.06	337.33	478.36	418.79	854.37	553.89	488.33	873.21	564.64	491.58	781.95	551.26	425.81	765.99	538.51	600.06	517.31	187.83	553.1	546.19	183.68	515.1	495.38	190.45	564.74	473.33	193.44	579.78	854.1	180.22	512.22	839.4	158.29	544.58	770.38	167.09	606.41	784.91	185.72
218	0.90733	741.51	1805.9	335.22	548.6	1577.7	559.09	509.43	1574.5	99.119	532.48	1111.6	540.81	525.89	1053	190.3	312.32	1120.5	419.47	320.7	1112.6	288.39	300.59	1086.8	352.64	495.18	1173.6	145.8	507.73	1218.5	547.62	472.24	973.84	148.06	466.09	1001.5	579.99	454.73	588.39	500.54	489.93	591.69	371.92	639	580.34	339.51	612.82	613.18	185.75	607.72	65.318	387.16	513.45	82.794	192.68	524.22	56.345	340.59	436.25	96.233	255.69	396.78	119.82	134.01	492.84	45.93	474.55	389.7	126.82	449.92	397.92	136.47	348.1	372.85	234.62	259.93	338.62	248.33	196.7	244.97	247.83	246.12	287.33	109.97	391.11	233.44	223.37	212.38	290.43	83.993	424.44	245.88	209.81	273.82	292.98	83.196	362.04	348.5	420.1	491.26	417.01	404.46	511.08	414.8	331.39	489.67	358.89	338.49	477.98	422.76	855.72	553.39	492.47	873.88	564.22	494.87	782.61	550.77	428.95	767.29	538	610.76	518.81	188.47	563.14	546.51	183.89	526.34	494.83	190.49	576.46	473.99	193.91	587.33	855.99	180.61	519.92	840.9	158.4	552.59	772.07	167.4	614.24	786.93	186.3
219	0.91151	747.99	1806.6	334.52	554.67	1578.9	558.9	515.59	1575.4	98.953	538.09	1112.2	541.02	532.49	1054.3	190.43	318.41	1121.5	418.78	327.12	1113.6	287.8	306.81	1087.8	351.93	501.81	1174.7	145.67	513.46	1219.9	547.61	479.28	975.04	147.92	471.21	1002.3	579.76	456.17	589.36	500.16	491.42	592.4	371.5	647	582.81	340.26	621.1	614.58	186.22	607.86	65.259	387.14	534.82	82.002	193.66	524.49	56.32	340.59	456.84	93.672	256.04	417.72	115.93	133.97	493.1	46.053	474.47	390.28	127.84	449.75	398.72	137.29	347.92	389.96	230.41	259.46	355.89	243.16	195.97	261.91	240.38	244.57	288.05	111.47	390.95	251.3	215.54	210.85	290.94	85.513	424.34	263.59	202.47	272.39	293.42	84.704	362.03	349.47	421.29	490.81	417.94	405.54	510.66	415.63	332.47	489.3	359.74	339.65	477.59	426.74	857.05	552.88	496.62	874.53	563.8	498.17	783.25	550.29	432.11	768.57	537.48	621.33	520.24	189.14	573.05	546.73	184.13	537.51	494.2	190.55	588.08	474.6	194.4	594.81	857.77	181.02	527.56	842.32	158.51	560.52	773.66	167.72	621.97	788.82	186.88
